<?xml version="1.0" standalone="no"?>
<!DOCTYPE svg PUBLIC "-//W3C//DTD SVG 20010904//EN"
 "http://www.w3.org/TR/2001/REC-SVG-20010904/DTD/svg10.dtd">
<svg version="1.0" xmlns="http://www.w3.org/2000/svg"
 width="1746.000000pt" height="1746.000000pt" viewBox="0 0 1746.000000 1746.000000"
 preserveAspectRatio="xMidYMid meet">
<g transform="translate(0.000000,1746.000000) scale(0.100000,-0.100000)"
fill="#000000" stroke="none">
<path d="M5397 15343 c-2 -1 -2065 -13 -2355 -13 l-62 0 -208 -212 c-825 -842
-831 -848 -1184 -1233 -20 -22 -46 -51 -58 -65 -29 -34 -178 -196 -215 -234
-16 -17 -88 -99 -160 -181 -71 -83 -163 -188 -205 -235 -110 -123 -192 -220
-310 -365 -36 -44 -68 -82 -71 -85 -3 -3 -73 -90 -155 -195 -135 -171 -192
-245 -362 -468 -29 -38 -52 -76 -52 -86 0 -10 21 -41 48 -69 26 -27 74 -81
107 -119 33 -37 87 -97 120 -133 94 -102 156 -172 205 -231 25 -29 83 -94 130
-144 99 -106 148 -159 250 -275 41 -47 77 -87 80 -90 3 -3 57 -61 120 -130 63
-69 117 -127 120 -130 3 -3 71 -77 150 -165 80 -88 149 -165 155 -171 26 -28
146 -162 167 -185 93 -106 138 -156 168 -189 19 -20 56 -62 81 -91 26 -30 62
-70 80 -90 19 -19 54 -58 78 -85 24 -27 83 -92 131 -144 49 -52 98 -106 110
-120 12 -13 56 -63 99 -110 43 -47 104 -114 136 -150 75 -84 211 -232 265
-290 97 -103 139 -150 215 -234 44 -50 87 -97 95 -106 8 -9 56 -61 105 -115
50 -54 95 -103 100 -109 6 -6 71 -79 145 -161 74 -82 140 -155 145 -161 18
-19 169 -186 280 -309 60 -66 128 -140 150 -165 23 -25 109 -119 191 -210 82
-91 153 -170 159 -176 5 -6 48 -53 95 -104 47 -51 90 -98 95 -104 6 -6 44 -49
85 -96 41 -47 80 -89 86 -95 8 -8 51 -55 219 -241 6 -6 48 -53 95 -105 47 -51
110 -121 140 -154 30 -34 94 -103 141 -155 48 -52 104 -115 125 -139 50 -55
60 -67 169 -186 50 -54 95 -103 100 -109 6 -6 50 -56 100 -111 49 -55 94 -105
100 -111 5 -6 46 -51 90 -99 44 -49 85 -93 90 -99 6 -6 44 -49 85 -95 41 -46
84 -94 95 -106 21 -23 28 -31 171 -190 49 -55 105 -118 124 -139 19 -21 40
-44 45 -50 50 -56 203 -224 215 -236 8 -8 37 -40 64 -70 59 -65 270 -293 306
-330 14 -14 81 -88 150 -165 69 -77 127 -142 130 -145 3 -3 41 -45 85 -95 44
-49 101 -112 127 -140 25 -27 56 -61 68 -75 12 -14 38 -43 58 -65 21 -22 80
-87 131 -145 52 -58 102 -112 110 -121 9 -8 41 -44 71 -79 30 -35 60 -68 65
-74 6 -6 42 -47 80 -90 39 -44 81 -92 95 -106 86 -91 172 -183 215 -231 336
-372 320 -356 341 -339 14 12 95 108 332 395 22 26 222 264 244 290 31 36 182
220 223 270 70 86 246 296 340 406 49 58 171 204 270 324 99 120 185 223 190
229 15 16 297 352 480 571 87 105 161 192 164 195 3 3 23 26 44 52 21 26 43
53 50 60 7 7 24 29 38 48 15 19 40 49 55 67 16 17 45 51 64 74 71 87 152 185
178 215 15 17 45 52 67 79 22 26 123 148 225 270 102 122 203 244 225 271 34
40 116 139 184 219 98 116 426 513 491 595 46 58 130 157 185 221 115 132 129
150 170 204 16 22 72 90 125 150 100 114 217 253 350 415 25 30 50 60 55 66 6
6 27 31 46 54 18 23 39 47 44 54 6 6 44 52 85 101 41 50 82 99 92 110 9 11 76
92 149 180 72 88 147 178 166 200 20 22 52 60 72 84 20 24 72 87 116 140 44
53 139 168 212 257 72 89 137 167 145 175 12 13 100 115 140 164 9 11 132 160
273 330 142 171 274 330 295 355 144 172 339 404 378 449 26 30 53 63 61 75 8
11 18 23 21 26 3 3 39 46 80 95 41 50 80 95 85 101 6 6 37 44 70 85 136 166
276 334 399 479 11 14 43 52 71 85 27 33 52 62 55 65 10 10 655 782 683 818
15 19 27 41 27 48 0 30 -815 846 -1530 1534 -26 25 -108 104 -182 175 -147
143 -425 407 -557 531 -46 43 -108 102 -136 129 -29 28 -81 77 -116 109 -35
33 -136 128 -224 211 -259 247 -278 264 -320 284 -22 11 -60 23 -85 27 -36 6
-8907 13 -8913 7z m-312 -851 c5 -1 -2 -10 -15 -19 -14 -10 -34 -25 -45 -34
-11 -9 -96 -79 -190 -155 -93 -76 -216 -178 -273 -226 -61 -52 -112 -88 -125
-88 -15 0 -72 52 -186 167 -208 214 -201 204 -201 267 0 69 13 84 75 88 50 3
941 3 960 0z m4411 -26 c56 -3 117 -8 135 -10 19 -3 70 -10 114 -16 275 -38
969 -196 1230 -280 1155 -372 1714 -898 1538 -1445 -86 -269 -386 -542 -844
-771 -74 -36 -141 -70 -150 -74 -119 -61 -674 -253 -822 -285 -12 -2 -56 -13
-97 -24 -83 -23 -350 -83 -495 -112 -27 -5 -61 -11 -75 -14 -14 -2 -65 -11
-115 -19 -49 -9 -108 -18 -130 -21 -22 -3 -65 -10 -95 -15 -30 -5 -80 -12
-110 -15 -30 -3 -62 -8 -70 -10 -8 -2 -46 -6 -83 -10 -37 -3 -76 -8 -85 -10
-9 -1 -51 -6 -92 -9 -41 -4 -95 -9 -120 -12 -67 -7 -135 -12 -240 -19 -52 -3
-120 -7 -150 -10 -30 -2 -129 -7 -220 -10 -91 -3 -203 -8 -250 -10 -47 -3 -91
-1 -97 3 -15 10 -20 64 -29 302 -3 102 -7 219 -9 260 -2 41 -6 149 -9 240 -7
169 -12 302 -21 470 -2 52 -7 167 -10 255 -10 278 -31 695 -40 785 -2 25 -7
83 -10 130 -6 90 -12 165 -20 240 -3 25 -7 70 -10 100 -10 98 -15 144 -20 180
-2 19 -7 60 -10 90 -3 30 -8 67 -11 82 -11 56 1 67 74 70 123 5 1345 1 1448
-6z m4528 -15 c15 -6 40 -21 54 -32 26 -20 208 -189 367 -341 44 -42 90 -85
102 -96 13 -10 95 -88 184 -173 88 -85 184 -176 212 -203 129 -121 491 -471
700 -676 531 -520 637 -626 637 -642 0 -15 -82 -124 -114 -153 -6 -5 -92 -107
-190 -225 -98 -118 -188 -226 -200 -240 -12 -14 -40 -47 -61 -75 -22 -27 -45
-56 -52 -63 -7 -7 -29 -34 -50 -60 -21 -26 -42 -52 -48 -58 -5 -6 -68 -82
-139 -168 -71 -86 -132 -156 -136 -156 -4 0 -13 39 -20 88 -12 87 -13 95 -23
142 -3 14 -10 49 -16 79 -6 30 -15 70 -21 90 -5 20 -11 47 -13 61 -7 35 -24
101 -53 200 -212 714 -518 1273 -1023 1870 -113 134 -432 458 -570 581 -46 41
-89 79 -95 84 -6 6 -51 44 -101 84 -49 41 -97 80 -105 88 -13 12 38 14 365 10
249 -3 390 -9 409 -16z m-11153 -1168 c0 -368 1 -821 2 -1008 1 -187 -1 -353
-4 -370 -4 -16 -12 -50 -19 -74 -21 -77 -70 -72 602 -66 1419 13 2159 25 2178
35 9 5 41 64 70 132 29 68 64 148 78 178 13 30 58 134 99 230 41 96 122 270
180 385 58 116 123 251 145 300 48 110 60 125 54 65 -3 -25 -8 -79 -11 -120
-7 -92 -14 -171 -20 -230 -8 -80 -16 -154 -20 -195 -2 -22 -9 -80 -14 -130
-27 -220 -37 -338 -46 -541 -4 -97 -12 -221 -20 -339 -2 -33 -7 -100 -10 -150
-3 -49 -8 -110 -10 -135 -3 -25 -7 -83 -11 -130 -3 -47 -7 -105 -10 -130 -2
-25 -7 -193 -10 -375 -14 -682 -7 -1019 31 -1640 4 -60 23 -279 30 -335 2 -19
7 -64 11 -100 3 -36 7 -72 9 -81 2 -8 6 -49 10 -90 4 -40 8 -76 10 -79 2 -3 6
-39 10 -80 4 -41 8 -77 10 -80 2 -3 6 -30 9 -60 4 -30 8 -66 11 -80 2 -14 16
-95 30 -180 29 -178 28 -171 96 -510 45 -228 72 -343 164 -695 36 -139 58
-213 125 -420 76 -235 112 -356 107 -361 -2 -2 -42 37 -88 88 -46 51 -100 111
-120 133 -60 64 -89 97 -174 191 -44 49 -105 116 -135 149 -30 32 -59 65 -65
71 -18 20 -343 379 -424 469 -21 22 -84 92 -141 155 -57 63 -142 157 -188 208
-47 51 -92 101 -102 111 -14 18 -124 139 -175 195 -11 12 -54 60 -95 105 -41
46 -86 96 -100 110 -14 15 -45 49 -70 77 -25 27 -85 93 -133 146 -48 53 -96
105 -105 116 -16 18 -119 132 -184 203 -12 14 -64 70 -114 125 -50 54 -117
128 -149 164 -32 36 -61 67 -64 70 -3 3 -44 48 -91 100 -47 52 -88 97 -91 100
-3 3 -27 30 -53 60 -26 30 -64 73 -85 95 -42 46 -191 211 -242 269 -19 22 -43
49 -54 60 -11 12 -38 42 -60 67 -46 51 -205 226 -250 275 -36 38 -174 190
-195 214 -19 22 -157 175 -190 210 -14 15 -53 59 -87 97 -34 38 -74 83 -90
100 -15 17 -56 62 -90 100 -34 38 -74 83 -90 100 -15 17 -59 66 -98 109 -38
43 -79 88 -90 100 -46 50 -161 179 -178 198 -23 27 -146 162 -183 203 -16 17
-42 45 -58 63 -26 30 -298 331 -321 356 -14 15 -147 163 -165 184 -8 10 -50
55 -92 101 -112 123 -118 130 -118 148 0 14 57 89 153 201 57 66 134 157 152
179 11 13 27 32 35 41 8 8 40 45 70 80 30 36 69 81 86 100 17 19 84 96 150
170 65 74 120 137 123 140 4 3 40 43 81 90 41 47 78 87 81 90 3 3 57 61 119
130 142 156 256 278 462 495 47 50 112 118 143 153 32 34 62 62 67 62 4 0 8
-300 9 -667z m10999 -3909 c0 -6 -42 -58 -106 -134 -12 -14 -41 -47 -64 -75
-23 -27 -52 -61 -63 -75 -12 -14 -89 -106 -171 -205 -83 -99 -155 -185 -161
-191 -13 -15 -41 -49 -90 -109 -22 -28 -48 -59 -58 -70 -10 -11 -44 -51 -75
-90 -31 -38 -59 -72 -62 -75 -3 -3 -88 -104 -189 -225 -101 -121 -192 -231
-204 -245 -12 -14 -42 -50 -66 -80 -25 -30 -50 -60 -55 -66 -6 -6 -27 -30 -46
-54 -35 -44 -144 -174 -184 -220 -12 -14 -64 -77 -116 -140 -52 -63 -102 -124
-112 -135 -9 -11 -48 -58 -88 -105 -121 -143 -131 -156 -488 -585 -72 -87
-117 -141 -122 -145 -3 -3 -36 -43 -75 -90 -38 -47 -77 -94 -86 -105 -10 -11
-82 -96 -160 -190 -77 -93 -151 -181 -162 -195 -12 -14 -87 -104 -167 -200
-80 -96 -155 -186 -166 -200 -12 -14 -52 -61 -89 -105 -36 -44 -84 -100 -104
-125 -21 -25 -80 -94 -130 -155 -51 -60 -100 -119 -109 -130 -10 -11 -109
-130 -222 -265 -112 -135 -207 -247 -210 -250 -3 -3 -25 -30 -50 -60 -25 -30
-47 -57 -50 -60 -3 -3 -43 -50 -89 -105 -45 -55 -95 -114 -109 -130 -15 -17
-43 -51 -62 -75 -19 -25 -41 -52 -50 -60 -8 -8 -83 -96 -165 -195 -82 -99
-156 -185 -165 -192 -26 -21 -43 -14 -90 36 -25 27 -91 97 -146 157 -98 105
-148 160 -194 214 -12 14 -40 45 -63 70 -23 25 -103 112 -177 195 -74 82 -144
159 -155 171 -24 24 -161 176 -188 207 -10 12 -49 56 -86 97 -71 78 -80 96
-46 93 11 -1 76 -4 145 -8 69 -4 141 -8 160 -10 19 -2 89 -6 155 -10 66 -4
145 -8 175 -10 30 -2 109 -7 175 -10 66 -3 149 -8 185 -10 384 -23 925 -26
1038 -6 2 1 2 18 -1 39 -5 44 -85 242 -191 474 -42 92 -76 169 -76 172 0 3
-11 29 -24 58 -13 29 -54 130 -91 223 -37 94 -97 240 -133 325 -35 85 -80 193
-98 240 -19 47 -39 94 -44 105 -54 115 -276 754 -390 1120 -73 233 -223 792
-244 905 -3 19 -8 44 -11 55 -3 16 -52 246 -81 380 -9 45 -25 121 -29 142 -2
15 3 26 14 33 10 5 20 8 22 6 23 -23 1514 -24 1934 -1 28 1 118 6 200 10 83 4
158 9 168 11 11 2 58 6 105 9 48 3 103 8 122 10 19 2 64 7 100 10 119 11 224
21 290 30 19 3 58 7 85 10 66 7 151 19 298 40 20 3 52 7 70 9 17 3 82 12 142
21 61 8 128 18 150 21 22 3 47 7 55 9 8 2 44 7 80 10 35 4 67 8 70 10 3 1 32
6 65 9 33 4 71 9 85 11 14 2 97 13 185 25 88 11 171 23 185 25 14 2 61 9 106
15 44 6 89 12 100 14 10 2 40 6 65 10 56 8 76 12 159 27 36 6 75 13 87 14 12
2 34 6 50 9 15 4 42 9 58 12 68 12 360 76 364 80 7 6 51 5 51 -2z"/>
</g>
</svg>
